<svg style = "width: 20px;height: 20px;" width="44" height="44" viewBox="0 0 44 44" fill="none" xmlns="http://www.w3.org/2000/svg">
<path d="M41.725 25.6042C41.3074 28.0969 40.4271 30.4813 39.1319 32.6172C37.8366 34.753 36.1554 36.6008 34.1781 38.0573C32.2035 39.5112 29.9724 40.5421 27.6172 41.0919C25.2619 41.6418 20.1828 41.8046 16.8472 40.8487C13.4527 39.876 11.259 38.4247 9.07025 36.236L3.97376 37.2326C2.59125 37.5022 1.52596 36.0298 2.21589 34.8006L4.91746 30.0028C3.76757 27.2484 3.24947 24.2481 3.40278 21.2452C3.5561 18.2423 4.37556 15.3187 5.79771 12.707C7.21987 10.0953 9.20507 7.87222 11.5947 6.20951C13.9843 4.54681 16.7097 3.49473 19.554 3.13787C22.3983 2.77836 27.1731 3.12465 29.8693 4.14501C32.5656 5.16536 34.9949 6.836 36.9669 9.01681C38.9389 11.2003 40.3954 13.8357 41.2201 16.7171C42.0449 19.5957 42.2194 22.6383 41.725 25.6016V25.6042Z" fill="#9CA2A7"/>
<path d="M29.5472 32.282C29.1507 32.282 28.8203 32.1445 28.5586 31.867C28.3074 31.5894 28.1832 31.2431 28.1832 30.8281V29.8078C27.443 29.7391 26.798 29.6201 26.2429 29.4536C25.701 29.2738 25.2543 29.0941 24.8974 28.9117C24.5538 28.7451 24.3106 28.5151 24.1652 28.2244C24.033 27.9204 23.9802 27.6085 24.0066 27.2886C24.0463 26.9555 24.1573 26.6568 24.3423 26.3951C24.5274 26.1308 24.7653 25.959 25.056 25.8744C25.36 25.7766 25.709 25.8189 26.1055 25.9986C26.3698 26.1361 26.7663 26.2894 27.2924 26.4559C27.821 26.6225 28.4872 26.7044 29.2908 26.7044C30.0944 26.7044 30.6839 26.5855 31.0143 26.3502C31.3447 26.1017 31.5086 25.8083 31.5086 25.4752C31.5086 25.1845 31.3976 24.9413 31.1729 24.7483C30.9482 24.5395 30.5385 24.3676 29.9464 24.2275L27.71 23.7279C25.2807 23.1596 24.0674 21.7797 24.0674 19.5884C24.0674 18.4226 24.4375 17.4393 25.175 16.633C25.9284 15.8136 26.9302 15.2796 28.1832 15.0311V13.9077C28.1832 13.4927 28.3074 13.1437 28.5586 12.8688C28.8229 12.5913 29.1533 12.4538 29.5472 12.4538C29.9411 12.4538 30.2741 12.5913 30.5358 12.8688C30.8002 13.1464 30.9323 13.4927 30.9323 13.9077V14.9465C31.3685 15.0153 31.81 15.121 32.2593 15.2585C32.7219 15.3959 33.1317 15.5836 33.4859 15.8189C33.8692 16.0409 34.1071 16.3449 34.1996 16.7335C34.3053 17.1088 34.2921 17.4763 34.1599 17.8358C34.0278 18.1821 33.7899 18.4385 33.4462 18.605C33.1158 18.7583 32.6928 18.724 32.18 18.5019C31.8628 18.3645 31.5192 18.2534 31.1517 18.1688C30.7817 18.071 30.3058 18.0235 29.7269 18.0235C29.0264 18.0235 28.4872 18.1556 28.1039 18.42C27.7338 18.6843 27.5488 19.0227 27.5488 19.4403C27.5488 19.7179 27.6545 19.9531 27.866 20.1488C28.0907 20.3285 28.4925 20.4898 29.074 20.6272L31.3315 21.148C33.7872 21.7295 35.0138 23.0829 35.0138 25.2056C35.0138 26.3846 34.6384 27.3679 33.885 28.1609C33.1317 28.9513 32.1483 29.4641 30.935 29.6994V30.8228C30.935 31.2379 30.8028 31.5868 30.5385 31.8617C30.2741 32.1393 29.9437 32.2767 29.5498 32.2767L29.5472 32.282Z" fill="#1D2327"/>
<path d="M16.0123 15C15.6595 15 15.3067 15.1205 15.0259 15.3652L10.5123 19.0466C9.88952 19.5819 9.82472 20.5179 10.3719 21.1312C10.9191 21.7445 11.8659 21.8083 12.4887 21.2695L16.0123 18.439L19.5359 21.2695C20.1587 21.8048 21.1055 21.7445 21.6527 21.1312C22.1999 20.5179 22.1351 19.5854 21.5123 19.0466L16.9987 15.3652C16.7143 15.1205 16.3615 15 16.0123 15Z" fill="#1D2327"/>
<path d="M16.0123 15C15.1843 15 14.5114 15.6629 14.5114 16.4783L14.5114 28C14.5114 28.8154 15.1846 29.4784 16.0126 29.4784C16.8406 29.4784 17.5138 28.8154 17.5138 28L17.5138 16.4783C17.5138 15.6629 16.8403 15 16.0123 15Z" fill="#1D2327"/>
</svg>
