<svg width="54" height="56" viewBox="0 0 54 56" fill="none" xmlns="http://www.w3.org/2000/svg">
<rect x="34.9033" y="15.0029" width="13.8171" height="9.52195" transform="rotate(45 34.9033 15.0029)" fill="#55C288"/>
<path d="M39.5943 10.3111C40.3754 9.53002 41.6417 9.53002 42.4228 10.3111L49.3645 17.2528C50.1455 18.0338 50.1455 19.3002 49.3645 20.0812L45.283 24.1627L35.5128 14.3926L39.5943 10.3111Z" fill="white"/>
<rect x="28.186" y="21.7202" width="13.8171" height="8.89372" transform="rotate(45 28.186 21.7202)" fill="#7FCFAD"/>
<rect x="21.4688" y="28.4371" width="13.8171" height="8.63568" transform="rotate(45 21.4688 28.4371)" fill="#C0DAE9"/>
<rect x="14.7512" y="35.1541" width="13.8171" height="12.09" transform="rotate(45 14.7512 35.1541)" fill="white"/>
<path d="M34.5969 15.5014L44.1741 25.0786L38.566 30.6867L28.9888 21.1095L34.5969 15.5014ZM45.5883 23.6644L36.0111 14.0872L38.1801 11.9182C39.7422 10.3561 42.2749 10.3561 43.837 11.9182L47.7573 15.8385C49.3194 17.4006 49.3194 19.9333 47.7573 21.4954L45.5883 23.6644ZM27.5746 22.5237L37.1518 32.1009L31.849 37.4037L22.2718 27.8265L27.5746 22.5237ZM20.8576 29.2407L30.4348 38.8179L25.4373 43.8154L15.8601 34.2382L20.8576 29.2407ZM14.4459 35.6524L24.0231 45.2296L18.1903 51.0624C16.6282 52.6245 14.0955 52.6245 12.5334 51.0624L8.61308 47.1421C7.05098 45.58 7.05098 43.0473 8.61308 41.4852L14.4459 35.6524Z" stroke="#0B0925" stroke-width="2"/>
<rect x="25.2229" y="11.2357" width="13.8171" height="9.56814" transform="rotate(30 25.2229 11.2357)" fill="#00B1C6"/>
<path d="M28.5435 5.48913C29.0957 4.53255 30.3189 4.2048 31.2755 4.75708L39.7774 9.66563C40.7339 10.2179 41.0617 11.4411 40.5094 12.3977L37.6234 17.3965L25.6574 10.4879L28.5435 5.48913Z" fill="white"/>
<rect x="20.4744" y="19.462" width="13.8171" height="8.90096" transform="rotate(30 20.4744 19.462)" fill="#6CCFEE"/>
<rect x="15.7263" y="27.689" width="13.8171" height="8.63568" transform="rotate(30 15.7263 27.689)" fill="#CCE5F7"/>
<rect x="10.9753" y="35.9152" width="13.8171" height="12.09" transform="rotate(30 10.9753 35.9152)" fill="white"/>
<path d="M25.0584 11.7957L36.788 18.5678L32.8225 25.4363L21.0928 18.6642L25.0584 11.7957ZM37.788 16.8358L26.0584 10.0637L27.5921 7.40715C28.6967 5.49398 31.143 4.83848 33.0562 5.94305L37.8576 8.71516C39.7708 9.81973 40.4263 12.2661 39.3217 14.1793L37.788 16.8358ZM20.0928 20.3962L31.8225 27.1684L28.0729 33.6629L16.3432 26.8908L20.0928 20.3962ZM15.3432 28.6228L27.0729 35.3949L23.5391 41.5155L11.8095 34.7434L15.3432 28.6228ZM10.8095 36.4755L22.5391 43.2476L18.4147 50.3913C17.3101 52.3045 14.8638 52.96 12.9506 51.8554L8.14915 49.0833C6.23598 47.9788 5.58048 45.5324 6.68505 43.6192L10.8095 36.4755Z" stroke="#0B0925" stroke-width="2"/>
<rect x="14.5278" y="10.3988" width="13.8171" height="9.46874" transform="rotate(15 14.5278 10.3988)" fill="#F55271"/>
<path d="M16.2455 3.98935C16.5314 2.92242 17.6281 2.28925 18.695 2.57513L28.1776 5.11598C29.2446 5.40187 29.8777 6.49854 29.5918 7.56547L28.0979 13.1409L14.7516 9.56478L16.2455 3.98935Z" fill="white"/>
<rect x="12.0718" y="19.5745" width="13.8171" height="9.36168" transform="rotate(15 12.0718 19.5745)" fill="#FD908D"/>
<rect x="9.6123" y="28.7501" width="13.8171" height="8.63568" transform="rotate(15 9.6123 28.7501)" fill="#DAB8C8"/>
<path d="M7.15601 37.9259L20.5023 41.502L18.6673 48.3504C17.9526 51.0177 15.2109 52.6006 12.5436 51.8859L4.0269 49.6039L7.15601 37.9259Z" fill="white"/>
<path d="M14.5143 10.9832L27.597 14.4887L25.5443 22.1495L12.4616 18.644L14.5143 10.9832ZM28.1147 12.5569L15.032 9.05139L15.8259 6.08844C16.3977 3.95458 18.591 2.68825 20.7249 3.26002L26.0802 4.69497C28.214 5.26674 29.4804 7.46009 28.9086 9.59395L28.1147 12.5569ZM11.944 20.5759L25.0267 24.0814L23.0858 31.3251L10.003 27.8196L11.944 20.5759ZM9.4854 29.7515L22.5681 33.257L20.7389 40.0836L7.6562 36.5781L9.4854 29.7515ZM7.13857 38.51L20.2213 42.0155L18.0863 49.9833C17.5146 52.1171 15.3212 53.3835 13.1873 52.8117L7.83203 51.3767C5.69816 50.805 4.43183 48.6116 5.0036 46.4778L7.13857 38.51Z" stroke="#0B0925" stroke-width="2"/>
<rect x="2.86401" y="11.9471" width="13.8171" height="9.54521" fill="#F8C208"/>
<path d="M2.86401 5.31152C2.86401 4.20696 3.75944 3.31152 4.86401 3.31152L14.6811 3.31152C15.7857 3.31152 16.6811 4.20695 16.6811 5.31152L16.6811 11.0836L2.86401 11.0836L2.86401 5.31152Z" fill="white"/>
<rect x="2.86401" y="21.4465" width="13.8171" height="9.26226" fill="#FFD666"/>
<rect x="2.86401" y="30.9456" width="13.8171" height="8.63568" fill="#FBEA83"/>
<path d="M2.86401 40.4453L16.6811 40.4453L16.6811 48.5876C16.6811 51.349 14.4425 53.5876 11.6811 53.5876L7.86401 53.5876C5.10258 53.5876 2.86401 51.349 2.86401 48.5876L2.86401 40.4453Z" fill="white"/>
<path d="M3 12.5156L16.5442 12.5156L16.5442 20.4466L3 20.4466L3 12.5156ZM16.5442 10.5156L3 10.5156L3 7.44812C3 5.23898 4.79086 3.44812 7 3.44812L12.5442 3.44812C14.7534 3.44812 16.5442 5.23898 16.5442 7.44812L16.5442 10.5156ZM3 22.4466L16.5442 22.4466L16.5442 29.9459L3 29.9459L3 22.4466ZM3 31.9459L16.5442 31.9459L16.5442 39.0133L3 39.0133L3 31.9459ZM3 41.0133L16.5442 41.0133L16.5442 49.2622C16.5442 51.4714 14.7534 53.2622 12.5442 53.2622L7 53.2622C4.79086 53.2622 3 51.4714 3 49.2622L3 41.0133Z" stroke="#0B0925" stroke-width="2"/>
<circle cx="9.77235" cy="46.4901" r="1.5907" stroke="#0B0925" stroke-width="2"/>
</svg>
