<svg width="54" height="54" viewBox="0 0 54 54" fill="none" xmlns="http://www.w3.org/2000/svg">
<path d="M4.52625 36.6957V42.5691L13.3681 44.8369M4.52625 36.6957L11.416 38.4872L13.3681 34.8588M4.52625 36.6957L2 36.1061L4.52625 32.3643M13.3681 44.8369L22.5545 42.5691V36.6957M13.3681 44.8369V34.8588M22.5545 36.6957L16.2389 38.4872L13.3681 34.8588M22.5545 36.6957L24.8511 35.9927L22.5545 32.3643M13.3681 34.8588L4.52625 32.3643M13.3681 34.8588L22.5545 32.3643M4.52625 32.3643L13.3681 30.3234L22.5545 32.3643" stroke="#0B0925" stroke-width="2" stroke-linecap="round" stroke-linejoin="round"/>
<path d="M25.8399 24.0114V31.7481L37.2204 34.7352M25.8399 24.0114L34.7078 26.3712L37.2204 21.5918M25.8399 24.0114L22.5884 23.2347L25.8399 18.306M37.2204 34.7352L49.0442 31.7481V24.0114M37.2204 34.7352V21.5918M49.0442 24.0114L40.9153 26.3712L37.2204 21.5918M49.0442 24.0114L52.0001 23.0854L49.0442 18.306M37.2204 21.5918L25.8399 18.306M37.2204 21.5918L49.0442 18.306M25.8399 18.306L37.2204 15.6176L49.0442 18.306" stroke="#C7C7C9" stroke-width="2" stroke-linecap="round" stroke-linejoin="round"/>
<path d="M27.1676 12.6723C24.0413 11.7511 20.5397 12.2138 17.6672 14.2349C14.0875 16.7537 12.4561 21.0096 13.1111 25.0583M27.1676 12.6723L24.3809 9.14261M27.1676 12.6723L24.2132 15.0048" stroke="#0B0925" stroke-width="2" stroke-linecap="round"/>
</svg>
