<svg width="54" height="54" viewBox="0 0 54 54" fill="none" xmlns="http://www.w3.org/2000/svg">
<path d="M14.2964 28.6482H18.0592C18.9481 28.6482 19.7303 29.2349 19.9792 30.0882L22.9975 40.4368M35.137 43.805H25.4799C24.591 43.805 23.8088 43.2183 23.5599 42.365L22.9975 40.4368M22.9975 40.4368H34.6114C35.5368 40.4368 36.3414 39.802 36.5566 38.902L37.9157 33.2185C38.2163 31.9612 37.2632 30.7533 35.9705 30.7533H22.9975" stroke="#0B0925" stroke-width="2" stroke-linecap="round"/>
<circle cx="26.5061" cy="46.9626" r="1.47358" fill="#0B0925"/>
<circle cx="34.0842" cy="46.9626" r="1.47358" fill="#0B0925"/>
<path d="M22.7524 18.8119C24.6492 18.4874 26.6708 19.0002 28.2158 20.3835C30.1413 22.1074 30.8044 24.7157 30.1411 27.0447M22.7524 18.8119L25.9383 15.473M22.7524 18.8119L24.9408 22.9538" stroke="#0B0925" stroke-width="2" stroke-linecap="round"/>
<path d="M35.9126 14.9889V24.3732C35.9126 24.7882 36.1689 25.16 36.5567 25.3077L43.8074 28.0694M35.9126 14.9889L43.4579 12.115C43.6833 12.0292 43.9321 12.0277 44.1584 12.1108L52.0001 14.9889M35.9126 14.9889L43.8074 18.2966M52.0001 14.9889V24.3642C52.0001 24.7836 51.7384 25.1585 51.3446 25.303L43.8074 28.0694M52.0001 14.9889L43.8074 18.2966M43.8074 18.2966V28.0694" stroke="#483DE0" stroke-width="2" stroke-linecap="round" stroke-linejoin="round"/>
<path d="M2 8.00701V17.3913C2 17.8062 2.25627 18.1781 2.64406 18.3258L9.89479 21.0875M2 8.00701L9.54533 5.1331C9.77068 5.04727 10.0195 5.04576 10.2458 5.12885L18.0875 8.00701M2 8.00701L9.89479 11.3147M18.0875 8.00701V17.3823C18.0875 17.8017 17.8258 18.1765 17.432 18.3211L9.89479 21.0875M18.0875 8.00701L9.89479 11.3147M9.89479 11.3147V21.0875" stroke="#0B0925" stroke-width="2" stroke-linecap="round"/>
</svg>
