<svg width="54" height="54" viewBox="0 0 54 54" fill="none" xmlns="http://www.w3.org/2000/svg">
<path d="M22.2563 25.3993C23.3307 25.3993 24.0455 25.2687 24.7967 24.8936C25.5525 24.5186 26.1261 24.0129 26.5177 23.3768C26.9138 22.7406 27.1118 22.0284 27.1118 21.2403C27.1118 20.5566 26.9775 19.9798 26.7089 19.5098C26.4403 19.0398 25.8091 17.7721 24.0172 17.7721L21.1634 17.7152C20.1833 17.7152 19.025 17.4365 18.2474 16.3027C17.6122 15.3767 17.6122 14.9093 17.6122 13.9265C17.6122 13.1099 17.8239 12.3978 18.2474 11.7901C18.6753 11.1776 19.249 10.7029 19.9683 10.3658C20.6922 10.0239 21.5003 9.85302 22.3927 9.85302M22.2563 25.3993C21.2547 25.3993 20.3873 25.2307 19.6543 24.8936C18.9259 24.5566 18.3522 24.0865 17.9334 23.4836C17.5191 22.8806 17.2846 22.1803 17.23 21.3827M22.2563 25.3993V28.3408M22.3927 9.85302C23.2941 9.85302 24.0954 10.0216 24.7965 10.3586C25.4977 10.691 26.0531 11.1468 26.4629 11.726C26.8772 12.3052 27.0957 12.9627 27.1185 13.6986M22.3927 9.85302V7.04248" stroke="#483DE0" stroke-width="2" stroke-linecap="round"/>
<circle cx="22.4356" cy="17.5728" r="12.5728" stroke="#0B0925" stroke-width="2"/>
<path d="M40.7683 12.2332L44.2585 8.74304" stroke="#0B0925" stroke-width="2" stroke-linecap="round"/>
<path d="M40.7683 23.3737L44.2585 26.8639" stroke="#0B0925" stroke-width="2" stroke-linecap="round"/>
<path d="M41.9317 17.8034H46.8676" stroke="#0B0925" stroke-width="2" stroke-linecap="round"/>
<path d="M9.85971 34.8344C13.5417 34.2706 20.9176 34.0779 22.8176 34.8344C24.9418 35.6803 29.1903 38.2882 32.3767 39.4864C34.7031 40.3613 34.6159 41.0742 34.7031 41.601M9.85971 34.8344V45.1957M9.85971 34.8344V34.8344C9.85971 33.7834 9.00767 32.9314 7.95663 32.9314H6.46091M22.8176 41.601C24.7294 42.0239 29.3178 43.0812 32.3767 43.927C34.6287 44.5497 34.7031 41.601 34.7031 41.601M34.7031 41.601L48.7334 37.7948C51.2825 37.1604 53.5342 39.7402 50.6452 41.601C47.7562 43.4618 38.8134 47.5922 34.7031 49.4248C33.1487 49.9182 29.4452 50.6089 27.0661 49.4248C24.6869 48.2407 19.1356 46.112 16.6573 45.1957C15.0287 44.8433 11.3892 44.3499 9.85971 45.1957M9.85971 45.1957V45.1957C9.85971 46.0132 9.197 46.6759 8.37952 46.6759H6.46091M6.46091 32.9314V32.9314C6.46091 32.1139 5.79821 31.4512 4.98073 31.4512H4C2.89543 31.4512 2 32.3466 2 33.4512V46.1561C2 47.2606 2.89543 48.1561 4 48.1561H4.98073C5.79821 48.1561 6.46091 47.4934 6.46091 46.6759V46.6759M6.46091 32.9314V46.6759" stroke="#0B0925" stroke-width="2" stroke-linecap="round"/>
</svg>
