<svg width="54" height="54" viewBox="0 0 54 54" fill="none" xmlns="http://www.w3.org/2000/svg">
<path d="M37.0223 31.1488V7C37.0223 4.23857 34.7838 2 32.0223 2H12.0223L8 2C5.23857 2 3 4.23858 3 7V47C3 49.7614 5.23858 52 8 52H19.8485" stroke="#0B0925" stroke-width="2" stroke-linecap="round"/>
<path d="M3.36768 13.0042L37.1134 13.0042" stroke="#0B0925" stroke-width="2"/>
<path d="M17.2138 45.1291H12.1611C10.5043 45.1291 9.16113 43.786 9.16113 42.1291V37.4868C9.16113 35.83 10.5043 34.4868 12.1611 34.4868H21.2844C22.9413 34.4868 24.2844 35.83 24.2844 37.4868V37.69" stroke="#0B0925" stroke-width="2" stroke-linecap="round"/>
<path d="M28.4315 18.8485H12.3179C10.661 18.8485 9.31787 20.1917 9.31787 21.8485V26.3788C9.31787 28.0357 10.661 29.3788 12.3179 29.3788H28.4315C30.0883 29.3788 31.4315 28.0357 31.4315 26.3788V21.8485C31.4315 20.1917 30.0884 18.8485 28.4315 18.8485Z" stroke="#0B0925" stroke-width="2"/>
<path d="M48.97 34.6466H32.8169C31.16 34.6466 29.8169 35.9898 29.8169 37.6466V39.8083C29.8169 41.4651 31.16 42.8083 32.8169 42.8083H48.97C50.6268 42.8083 51.97 41.4651 51.97 39.8083V37.6466C51.97 35.9898 50.6268 34.6466 48.97 34.6466Z" fill="#483DE0"/>
<path d="M38.596 46.8593C36.9987 49.0964 34.4326 50.6098 31.4741 50.761C27.7872 50.9493 24.4909 48.9711 22.821 45.9417M38.596 46.8593L38.5805 50.6523M38.596 46.8593L35.1949 46.2313" stroke="#0B0925" stroke-width="2" stroke-linecap="round"/>
</svg>
